# xmcd
#
# Track frame offsets:
#	150
#	16275
#	29850
#	45075
#	61800
#	72900
#	86250
#	102675
#	115275
#	130275
#	145725
#	161325
#	177750
#	194400
#	209550
#	224475
#	238800
#	249675
#	264600
#	280597
#
# Disc length: 3933 seconds
#
# Revision: 0
# Processed by: cddbd v1.5.2PL0 Copyright (c) Steve Scherf et al.
# Submitted via: EasyCDDAExtractor 16.0.6.1
#
DISCID=2b0f5b14
DTITLE=Πάνου Πόλυ - Τραγούδια 45 στροφές-Πάνου Πόλυ 1
DYEAR=1997
DGENRE=Λαϊκή
TTITLE0=Πάνου Πόλυ-Λαύκας Γιώργος - Το φαρμακωμένο δάκρυ [1963, Γ. Λαύκα]
TTITLE1=Πάνου Πόλυ-Καραμπεσίνης Γιάννης - Έναν άνδρα αγαπούσα [1962, Γ. Μητσάκ
TTITLE1=η]
TTITLE2=Πάνου Πόλυ - Και συ γελάστηκες [1964, Στέλ. Μακρυδάκη]
TTITLE3=Πάνου Πόλυ - Ο όμορφος αλήτης [1962, Απ. Καλδάρα-Λ. Τσώλη]
TTITLE4=Πάνου Πόλυ - Χτυπάω το κεφάλι μου [1972, Αντ. Ρεπάνη-Ν. Μουρκάκου]
TTITLE5=Πάνου Πόλυ - Όσο αξίζει αυτή η νύχτα [1963, Βασ. Καραπατάκη]
TTITLE6=Πάνου Πόλυ - Δεν θά 'μαι πια το θύμα σου [1962, Γιάννη Καραμπεσίνη]
TTITLE7=Πάνου Πόλυ - Αγάπη, ζήλεια, πόνος [1964, Γερ. Κλουβάτου]
TTITLE8=Πάνου Πόλυ-Κλειδωνιάρης Αντώνης - Τον σταυρό που μού 'χεις δώσει [1961
TTITLE8=, Θ. Δερβενιώτη]
TTITLE9=Πάνου Πόλυ - Ο αμαξάς [1972, Γ. Ζαμπέτα-Θ. Σοφού]
TTITLE10=Πάνου Πόλυ - Και συ με πρόδωσες [1963, Γιάννη Καραμπεσίνη]
TTITLE11=Πάνου Πόλυ - Ποιος είναι αυτός ο ξένος [1964, Χρ. Κολοκοτρώνη]
TTITLE12=Πάνου Πόλυ-Καραμπεσίνης Γιάννης - Σε μένα θα ξανάρθεις [1963, Γιάννη 
TTITLE12=Καραμπεσίνη]
TTITLE13=Πάνου Πόλυ - Μέσ' στο κλάμμα ξαγρυπνώ [1966, Βασ. Καραπατάκη-Κ. Βίρβο
TTITLE13=υ]
TTITLE14=Πάνου Πόλυ - Γρουσούζα μέρα Κυριακή [1972, Αντ. Ρεπάνη-Ν. Μουρκάκου]
TTITLE15=Πάνου Πόλυ - Απ' την Ελλάδα μακρυά [1963, Χρ. Κολοκοτρώνη]
TTITLE16=Πάνου Πόλυ-Χρηστάκης - Για σένα εγκατέλειψα [1963, Στέλ. Μακρυδάκη]
TTITLE17=Πάνου Πόλυ-Χρηστάκης - Κάθε λίγο και λιγάκι [1965, Θ. Σοφού]
TTITLE18=Πάνου Πόλυ - Κλαίω και σ' αναζητώ [1961, Βασ. Τσιτσάνη]
TTITLE19=Πάνου Πόλυ-Γκίκα Βούλα - Ποιά σε πλάνεψε [1963, Χρ. Κολοκοτρώνη]
EXTD=
EXTT0=
EXTT1=
EXTT2=
EXTT3=
EXTT4=
EXTT5=
EXTT6=
EXTT7=
EXTT8=
EXTT9=
EXTT10=
EXTT11=
EXTT12=
EXTT13=
EXTT14=
EXTT15=
EXTT16=
EXTT17=
EXTT18=
EXTT19=
PLAYORDER=
